<svg xmlns="http://www.w3.org/2000/svg" xmlns:xlink="http://www.w3.org/1999/xlink" xmlns:fi="http://pattern.flaticon.com/" x="0" y="0" width="700" height="350" viewBox="0 0 700 350"><rect x="0px" y="0px" width="100%" height="100%" opacity="1" fill="#333333"/><defs><g transform="matrix(0.9804081916809082 0 0 0.9804081916809082 130 174)" id="L1_0"><path d="M31.604,10.922c2.969,0.777,6.001-1,6.773-3.968c0.774-2.967-1.002-6-3.967-6.773    c-2.969-0.774-6.002,1.003-6.776,3.97C26.86,7.118,28.639,10.152,31.604,10.922z" fill="#444444"/><path d="M50.013,57.076l-1.099-2.668l0.486-0.203l-0.193-0.572c-2.125-6.23-4.308-13.594-5.741-18.594    c0.393,0.729,0.805,1.447,1.243,2.146c0.5,0.801,1.334-0.668,0.938-1.3c-0.649-1.034-1.239-2.104-1.769-3.202    c0.068,0.016,0.135,0.032,0.203,0.051c0.697,0.16,1.086,0.537,1.395,1.184c0.111,0.238,0.252,0.346,0.516,0.354    c0.381,0.008,0.821-0.108,1.031-0.465c0.108-0.182,0.209-0.354,0.26-0.563c0.018-0.063,0.028-0.123,0.037-0.188    c0.008-0.043,0.016-0.072,0.021-0.1c0.224-0.289,0.305-0.709,0.17-1.051c-0.141-0.359-0.535-0.467-0.826-0.199    c-0.195,0.179-0.334,0.389-0.425,0.631c-0.298-0.473-0.673-0.873-1.22-1.095c-0.619-0.255-1.295-0.273-1.881-0.625    c-0.153-0.094-0.303-0.098-0.435-0.046c-0.146-0.013-0.296,0.075-0.429,0.212c-0.133-1.216-0.271-2.432-0.416-3.646    c2.029-1.194,4.012-2.588,6.046-4.252c0.786-0.644,1.243-1.629,1.28-2.775c0.043-1.255-0.424-2.465-1.248-3.238    c-3.16-2.964-6.938-3.883-10.942-4.856l-0.272-0.067c-0.115-0.04-0.235-0.06-0.359-0.06c-0.98,0-2.178,1.44-2.963,2.567    c-0.68-1.009-1.604-2.101-2.412-2.101c-0.183,0-0.361,0.049-0.514,0.142c-0.646,0.391-1.199,0.87-1.648,1.431h-12.13v2.051h-3.406    c-1.298,0-2.35,1.052-2.35,2.35s1.052,2.351,2.35,2.351h3.406v1.668H28.21c0.482,3.295,0.922,6.758,1.308,10.307    c-3.809,0.97-7.554,2.521-11.139,4.621c-1.073,0.629-1.73,1.58-1.859,2.688c-0.131,0.33-0.218,0.681-0.262,1.043l-1.57,12.871    l1.058,0.201l-0.465,2.723c-0.278,1.625,0.815,3.166,2.44,3.443c1.624,0.276,3.166-0.815,3.443-2.438l0.446-2.617l1.074,0.205    l1.472-12.041c3.491-1.818,9.079-4.146,10.292-4.65c0.564,0.09,1.151,0.107,1.739,0.053l6.511,18.254l0.713-0.297l1.084,2.635    c0.627,1.525,2.371,2.252,3.894,1.625C49.912,60.346,50.64,58.602,50.013,57.076z M29.411,21.604l-0.083-0.553H18.014v-0.373    h0.033c-0.012-0.014-0.021-0.026-0.033-0.039v-4.633c0.02-0.018,0.033-0.029,0.033-0.029h-0.033v-0.755h11.491l0.193-0.273    c0.352-0.496,0.805-0.922,1.348-1.269c0.373,0.216,1.191,1.252,1.805,2.301l0.543,0.925l0.565-0.911    c0.863-1.386,1.998-2.703,2.402-2.807l0.352,0.086c3.832,0.931,7.449,1.812,10.363,4.543c0.547,0.514,0.867,1.375,0.838,2.249    c-0.025,0.767-0.312,1.412-0.806,1.815c-1.852,1.515-3.657,2.787-5.495,3.895l-1.381-5.845l-1.261,0.297L39.155,21l-3.539,1.442    c-1.203,0.489-1.781,1.862-1.289,3.064c0.488,1.202,1.859,1.78,3.062,1.29l2.919-0.919l0.242,1.025    c0.165,1.356,0.319,2.713,0.468,4.07H30.631C30.264,27.748,29.856,24.602,29.411,21.604z M43.457,55.287L37.05,37.314    l-0.537,0.092c-0.679,0.115-1.373,0.111-2.021-0.01l-0.188-0.035l-0.178,0.072c-0.721,0.295-7.156,2.95-10.878,4.932l-0.297,0.158    l-1.386,11.338L16.12,52.83l1.424-11.67c0.035-0.279,0.102-0.539,0.208-0.789l0.047-0.195c0.063-0.73,0.49-1.348,1.235-1.781    c3.648-2.137,7.462-3.69,11.338-4.617l0.554-0.133l-0.06-0.565c-0.006-0.052-0.011-0.103-0.018-0.154h10.669    c1.312,4.646,3.812,13.279,6.269,20.554L43.457,55.287z" fill="#444444"/></g><g transform="matrix(1.0152628421783447 0 0 1.0152628421783447 300 2)" id="L1_1"><path d="M47.884,7.8c-1.038-1.039-2.722-1.039-3.761,0l-2.016,2.016l-0.611-0.612l-0.852,0.851l0.01,0.011    l-5.797,5.468L27.14,11.32c-0.978-0.628-2.104-0.95-3.385-0.958c-1.836,0-3.797,0.923-5.116,2.411    c-1.094,1.23-1.601,2.712-1.428,4.167l1.587,13.256c-0.449-0.258-0.886-0.532-1.322-0.769c-1.331-0.717-2.782-0.83-4.208-0.339    c-0.803,0.275-1.485,0.987-1.563,1.863c-0.066,0.74,0.55,1.354,1.303,1.094c1.075-0.369,2.085-0.067,3.086,0.405    c-0.137,0.044-0.269,0.095-0.407,0.136c-0.806,0.234-1.488,1.016-1.562,1.862c-0.068,0.771,0.546,1.313,1.305,1.095    c1.287-0.377,2.514-0.904,3.698-1.525l1.111,8.656l-6.605,7.74l-0.018-0.019l-1.421,1.524l0.958,0.893l-1.834,1.643    c-1.094,0.98-1.188,2.661-0.207,3.758c0.981,1.094,2.662,1.186,3.757,0.205l2.192-1.965l1.219,1.135l1.42-1.523l-0.016-0.018    c0.728-0.812,1.482-1.627,2.287-2.479c2.239-2.366,4.554-4.812,6.134-7.51c1.002-1.711,0.51-4.211,0.114-6.219    c-0.008-0.047-0.018-0.095-0.027-0.14c2.888,3.234,4.101,6.979,3.771,11.575l-0.031-0.002l-0.205,2.074l1.676,0.164v2.924    c0,1.471,1.189,2.66,2.658,2.66c1.472,0,2.662-1.189,2.662-2.66v-2.4l1.278,0.125l0.205-2.072l-0.058-0.006    c0.814-7.838-1.91-14.617-8.123-20.158c0.008-0.234,0-0.455-0.026-0.666l-0.042-0.347h6h0.924h0.295v-0.694h2.865    c1.471,0,2.66-1.189,2.66-2.661c0-1.469-1.189-2.66-2.66-2.66h-2.865v-0.56h-0.295h-0.922h-6.786l-0.382-3.187l2.891,1.579    c0.535,0.292,1.129,0.446,1.717,0.446c0.892,0,1.752-0.348,2.422-0.98l7.703-7.262l0.004,0.007l0.853-0.851l-0.511-0.51    l2.016-2.016C48.924,10.523,48.924,8.839,47.884,7.8z M37.959,25.713v3.824h-5.221l-0.646-3.824H37.959z M31.328,33.16    c5.703,5.191,8.21,11.508,7.453,18.788l-5.445-0.535c0.41-5.722-1.459-10.382-5.695-14.215l-1.38-1.245l0.32,2.51    c0.065,0.496,0.173,1.053,0.291,1.646c0.35,1.778,0.785,3.995,0.048,5.256c-1.5,2.562-3.76,4.95-5.948,7.261    c-0.768,0.813-1.556,1.647-2.302,2.48l-4.027-3.751l7.042-8.251l-1.169-9.094c0.085-0.027,0.167-0.063,0.248-0.107    c1.172,0,2.342,0,3.514,0c0.053,0,0.103,0,0.156,0c1.863,0,3.726,0,5.589,0C30.504,33.902,30.973,33.588,31.328,33.16z     M36.877,21.194c-0.695,0.656-1.699,0.785-2.535,0.328l-5.233-2.856l1.456,12.179c-1.716,0-3.436,0-5.153,0    c-0.052,0-0.102,0-0.154,0c-1.634,0-3.267,0-4.901,0c-0.064-0.02-0.132-0.027-0.199-0.035c0.005-0.109,0.012-0.221,0.031-0.323    l0.018-0.103l-1.628-13.608c-0.163-1.357,0.502-2.429,1.088-3.091c1.051-1.183,2.656-1.947,4.115-1.947    c0.979,0.006,1.86,0.255,2.657,0.766l8.637,4.716l6.554-6.18l2.92,2.92L36.877,21.194z" fill="#444444"/><circle cx="26" cy="5" r="5" fill="#444444"/></g><g transform="matrix(1.074479341506958 0 0 1.074479341506958 136 348)" id="L1_2"><path d="M44.859,25.194c-0.021-0.046-0.049-0.089-0.064-0.111l-7.953-15.8l-0.955,0.481l-1.093-2.156    c-0.632-1.25-2.159-1.75-3.407-1.117c-1.25,0.632-1.75,2.158-1.119,3.407l1.088,2.146l-0.711,0.358l3.783,7.519H22.969    c-0.534,0-1.047,0.058-1.53,0.175C17.302,14.643,12.656,9.34,7.251,3.898l-0.446-0.45L6.004,4.249L4.218,2.668    C3.169,1.739,1.566,1.836,0.639,2.882c-0.929,1.05-0.833,2.652,0.214,3.582L2.41,7.842L1.452,8.799l0.443,0.446    c6.068,6.109,10.975,11.79,15.001,17.368c0.09,0.124,0.188,0.245,0.298,0.364c0.031,0.207,0.072,0.411,0.121,0.609    c-0.015,0.138-0.023,0.281-0.023,0.429v21.234h1.374l0.011,2.039c0.006,1.4,1.147,2.529,2.547,2.523    c1.401-0.008,2.531-1.148,2.524-2.549l-0.01-2.016h1.122V34.413c0.044,0.023,0.094,0.035,0.14,0.055    c0.015,0.027,0.031,0.059,0.047,0.094c0.134,0.354,0.227,0.721,0.318,1.086c0.25,1,1.352,1.59,2.328,1.322    c1.011-0.279,1.57-1.328,1.32-2.328c-0.013-0.045-0.024-0.09-0.037-0.135c0.553,0.348,1.066,0.744,1.5,1.24    c1.604,1.844,4.271-0.844,2.676-2.676c-0.389-0.447-0.825-0.826-1.287-1.166h6.666c0.585,0,1.148-0.072,1.686-0.219l0.773,1.678    l-0.762-0.23l-0.213,0.693l-2.076-0.715c-1.324-0.457-2.769,0.248-3.223,1.572c-0.459,1.322,0.244,2.768,1.567,3.225l2.246,0.771    l-0.331,1.086l8.173,2.496c1.294,0.396,2.742-0.021,3.627-1.035c0.896-1.027,1.106-2.494,0.536-3.734L44.859,25.194z     M23.599,47.987h-5.045V28.015c0-0.135,0.012-0.264,0.028-0.388l0.017-0.126l-0.035-0.122c-0.066-0.244-0.115-0.502-0.147-0.765    l-0.025-0.218l-0.156-0.155c-0.126-0.124-0.229-0.245-0.317-0.367C13.951,20.379,9.145,14.791,3.233,8.803l3.568-3.567    c5.289,5.359,9.837,10.586,13.891,15.963l0.271,0.358l0.047-0.015c-0.032,0.233-0.024,0.484,0.046,0.755    c0.7,2.734,1.4,5.467,2.101,8.2c0.089,0.344,0.248,0.611,0.442,0.818C23.599,31.315,23.599,47.987,23.599,47.987z M24.859,34.288    v-0.006c0.017,0.02,0.039,0.043,0.063,0.072C24.895,34.325,24.873,34.303,24.859,34.288z M49.049,40.4    c-0.562,0.646-1.479,0.912-2.309,0.66l-6.965-2.129l1.289-4.223l2.25,0.688l-2.438-5.283l-0.551,0.211    c-0.554,0.215-1.156,0.32-1.795,0.32h-8.793c-0.952-0.479-1.934-0.918-2.854-1.439c-0.058-0.033-0.114-0.053-0.171-0.078    c-0.67-2.61-1.339-5.221-2.01-7.832c-0.011-0.041-0.028-0.072-0.04-0.111h11.812l-4.14-8.219l3.943-1.985l7.391,14.678    c0.019,0.034,0.037,0.065,0.043,0.069l5.679,12.298C49.754,38.812,49.621,39.743,49.049,40.4z" fill="#444444"/><circle cx="50" cy="20" r="5" fill="#444444"/></g><path d="M300.776,165.655l-18.59-89.635c-1.885-12.805-10.27-24.635-21.84-30.94l-59.02-33.93    c-0.065-0.065-0.13-0.065-0.195-0.065c-0.065,0-0.065-0.065-0.13-0.065l-21.84-10.53c-0.65-0.325-1.365-0.455-2.145-0.455h-54.21    c-0.78,0-1.495,0.195-2.21,0.52L99.731,11.02c-0.065,0-0.065,0.065-0.13,0.065s-0.065,0.065-0.13,0.065L39.606,45.145    c-10.855,6.305-18.98,17.81-21.71,30.68v0.065l-17.81,89.765c-0.26,1.43,0.065,2.925,1.04,4.03c0.91,1.105,2.34,1.755,3.77,1.755    h53.365c2.34,0,4.355-1.69,4.81-3.965l5.655-29.835l6.435,49.725l-21.645,96.2c-0.325,1.365,0,2.73,0.78,3.9    c0.78,1.105,2.015,1.885,3.38,2.015l97.045,11.31c0.195,0,0.39,0.065,0.585,0.065s0.39,0,0.65-0.065l86.58-11.31    c1.365-0.195,2.6-0.91,3.38-2.015c0.78-1.105,1.04-2.535,0.78-3.835l-21.645-96.2l6.89-49.4l5.2,29.445    c0.39,2.34,2.405,4.03,4.81,4.03h54.21c1.495,0,2.86-0.65,3.77-1.82C300.711,168.58,301.101,167.086,300.776,165.655z     M124.106,9.721h51.935l16.12,7.735l-38.61,66.495l-44.46-66.69L124.106,9.721z M74.381,106.116    c-0.325-2.405-2.275-4.16-4.68-4.225c-2.405-0.065-4.485,1.625-4.94,3.965l-10.595,55.9h-43.42l16.64-83.915    c2.145-10.075,8.71-19.37,17.03-24.245l55.9-31.72l61.36,92.04v79.82c-14.625,0.715-29.315-0.195-43.55-2.795l-33.605-6.565    L74.381,106.116z M161.741,290.326l-6.5,0.78l-91.065-10.595l19.435-86.385l31.785,6.24l-26.91,31.005    c-1.755,2.015-1.56,5.135,0.52,6.89c2.015,1.755,5.135,1.56,6.89-0.52l23.01-26.52v41.145c0,2.665,2.21,4.875,4.875,4.875    c2.665,0,4.875-2.21,4.875-4.875v-49.985c7.8,0.91,15.73,1.365,23.595,1.365c3.185,0,6.305-0.065,9.49-0.195V290.326z     M235.906,280.641l-64.415,8.385v-86.19c9.62-0.91,19.175-2.47,28.6-4.745l16.445-3.575L235.906,280.641z M245.916,161.755    l-9.815-55.835c-0.39-2.34-2.47-4.03-4.81-4.03h-0.065c-2.405,0.065-4.42,1.82-4.745,4.225l-10.985,78.65l-17.55,3.835h-0.13    c-8.645,2.08-17.485,3.575-26.325,4.42v-80.6c0-0.975-0.26-1.885-0.845-2.73l-11.115-16.705l41.21-70.98l54.86,31.525    c0.065,0,0.065,0.065,0.13,0.065c9.035,4.875,15.47,14.04,16.9,23.92c0,0.13,0,0.195,0.065,0.325l17.42,83.915H245.916z" transform="matrix(0.19940775632858276 0 0 0.19940775632858276 294 178)" id="L1_3" fill="#444444"/><g transform="matrix(0.11718777567148209 0 0 0.11718777567148209 32.00000008789078 266.9999997802729)" id="L1_4"><path d="m354.488281 399.070312h45.679688c8.386719 0 15.210937-6.828124 15.210937-15.214843v-45.679688c0-8.386719-6.824218-15.210937-15.210937-15.210937h-45.679688c-8.386719 0-15.210937 6.824218-15.210937 15.210937v45.679688c0 8.386719 6.824218 15.214843 15.210937 15.214843zm-.210937-15.214843v-15.339844h15.550781v15.554687h-15.339844c-.117187 0-.210937-.097656-.210937-.214843zm45.890625.214843h-15.339844v-15.554687h15.550781v15.339844c0 .117187-.09375.214843-.210937.214843zm.210937-45.894531v15.339844h-15.550781v-15.550781h15.339844c.117187 0 .210937.09375.210937.210937zm-45.890625-.210937h15.339844v15.550781h-15.550781v-15.339844c0-.117187.09375-.210937.210937-.210937zm0 0" fill="#444444"/><path d="m156.570312 322.964844h-45.675781c-8.390625 0-15.214843 6.824218-15.214843 15.210937v45.679688c0 8.386719 6.824218 15.214843 15.214843 15.214843h45.675781c8.390626 0 15.214844-6.828124 15.214844-15.214843v-45.679688c0-8.386719-6.824218-15.210937-15.214844-15.210937zm.214844 15.210937v15.339844h-15.550781v-15.550781h15.335937c.117188 0 .214844.09375.214844.210937zm-45.890625-.210937h15.339844v15.550781h-15.554687v-15.339844c0-.117187.097656-.210937.214843-.210937zm-.214843 45.890625v-15.339844h15.554687v15.554687h-15.339844c-.117187 0-.214843-.097656-.214843-.214843zm45.890624.214843h-15.335937v-15.554687h15.550781v15.339844c0 .117187-.097656.214843-.214844.214843zm0 0" fill="#444444"/><path d="m139.042969 202.4375h45.675781c8.390625 0 15.214844-6.824219 15.214844-15.214844v-45.675781c0-8.390625-6.828125-15.214844-15.214844-15.214844h-45.675781c-8.390625 0-15.214844 6.828125-15.214844 15.214844v45.675781c0 8.390625 6.824219 15.214844 15.214844 15.214844zm-.214844-15.214844v-15.335937h15.550781v15.550781h-15.335937c-.117188 0-.214844-.097656-.214844-.214844zm45.890625.214844h-15.339844v-15.550781h15.554688v15.335937c0 .117188-.097656.214844-.214844.214844zm.214844-45.890625v15.339844h-15.554688v-15.554688h15.339844c.117188 0 .214844.097657.214844.214844zm-45.890625-.214844h15.335937v15.554688h-15.550781v-15.339844c0-.117187.097656-.214844.214844-.214844zm0 0" fill="#444444"/><path d="m327.433594 202.4375h45.675781c8.386719 0 15.210937-6.824219 15.210937-15.214844v-45.675781c0-8.390625-6.824218-15.214844-15.210937-15.214844h-45.675781c-8.390625 0-15.214844 6.828125-15.214844 15.214844v45.675781c0 8.390625 6.824219 15.214844 15.214844 15.214844zm-.214844-15.214844v-15.335937h15.550781v15.550781h-15.335937c-.121094 0-.214844-.097656-.214844-.214844zm45.890625.214844h-15.339844v-15.550781h15.550781v15.335937c0 .117188-.09375.214844-.210937.214844zm.210937-45.890625v15.339844h-15.550781v-15.554688h15.339844c.117187 0 .210937.097657.210937.214844zm-45.886718-.214844h15.335937v15.554688h-15.550781v-15.339844c0-.117187.09375-.214844.214844-.214844zm0 0" fill="#444444"/><path d="m233.238281 202.4375h45.675781c8.386719 0 15.210938-6.824219 15.210938-15.214844v-45.675781c0-8.390625-6.824219-15.214844-15.210938-15.214844h-45.675781c-8.390625 0-15.214843 6.828125-15.214843 15.214844v45.675781c0 8.390625 6.824218 15.214844 15.214843 15.214844zm-.214843-15.214844v-15.335937h15.550781v15.550781h-15.335938c-.121093 0-.214843-.097656-.214843-.214844zm45.890624.214844h-15.339843v-15.550781h15.550781v15.335937c0 .117188-.09375.214844-.210938.214844zm.210938-45.890625v15.339844h-15.550781v-15.554688h15.339843c.117188 0 .210938.097657.210938.214844zm-45.886719-.214844h15.335938v15.554688h-15.550781v-15.339844c0-.117187.09375-.214844.214843-.214844zm0 0" fill="#444444"/><path d="m509.402344 276.5625c-3.132813-2.707031-7.871094-2.359375-10.578125.773438l-10.238281 11.851562c-.488282.566406-1.050782 1.046875-1.65625 1.457031-.007813-.007812-.015626-.011719-.023438-.015625-40.417969-25.480468-63.960938-67.140625-66.507812-71.800781-1.5625-2.863281-4.558594-4.640625-7.820313-4.640625h-.691406v-97.789062h23.476562.0625.046875c6.789063 0 13.230469-2.945313 17.667969-8.082032l10.234375-11.851562c2.707031-3.136719 2.363281-7.871094-.773438-10.578125-3.132812-2.707031-7.867187-2.363281-10.578124.773437l-10.234376 11.847656c-.488281.566407-1.050781 1.046876-1.660156 1.457032-.007812-.003906-.011718-.007813-.019531-.015625-40.425781-25.484375-63.960937-67.140625-66.511719-71.804688-.09375-.171875-.210937-.332031-.316406-.496093v-19.648438c0-4.144531-3.355469-7.5-7.5-7.5-4.140625 0-7.5 3.355469-7.5 7.5v15.511719h-151.847656c-4.144532 0-7.5 3.359375-7.5 7.5 0 4.144531 3.355468 7.5 7.5 7.5h155.796875c6.371093 10.964843 24.664062 39.574219 54.054687 62.886719h-320.574218c29.394531-23.316407 47.6875-51.925782 54.058593-62.886719h28.664063c4.140625 0 7.5-3.355469 7.5-7.5 0-4.140625-3.359375-7.5-7.5-7.5h-24.714844v-15.511719c0-4.144531-3.359375-7.5-7.5-7.5-4.144531 0-7.5 3.355469-7.5 7.5v19.648438c-.105469.164062-.222656.324218-.316406.496093-2.550782 4.667969-26.085938 46.320313-66.507813 71.804688-.007812.007812-.015625.011719-.023437.019531-.609375-.410156-1.171875-.890625-1.660156-1.457031l-10.238282-11.851563c-2.707031-3.132812-7.445312-3.480468-10.578125-.773437-3.136719 2.707031-3.480469 7.445312-.773437 10.578125l10.238281 11.851562c4.4375 5.136719 10.875 8.082032 17.664063 8.082032h.050781.0625 22.539062v97.808593c-3.167969.085938-6.054687 1.832031-7.574219 4.617188-2.550781 4.664062-26.085937 46.320312-66.507812 71.804687-.007812.003906-.015625.011719-.023438.015625-.609374-.410156-1.171874-.890625-1.660156-1.457031l-10.234375-11.851562c-2.707031-3.132813-7.445312-3.480469-10.578125-.773438-3.136718 2.710938-3.480468 7.445312-.773437 10.578125l10.234375 11.851563c4.4375 5.140624 10.878906 8.085937 17.667968 8.085937h.050782.058594 24.683593v117.242187h-19.25c-10.164062 0-18.433593 8.265626-18.433593 18.429688v26.515625c0 10.164063 8.269531 18.433594 18.433593 18.433594h440.523438c10.160156 0 18.429687-8.269531 18.429687-18.433594v-26.515625c0-10.164062-8.269531-18.429688-18.429687-18.429688h-19.25v-117.242187h25.617187c.023438 0 .042969-.003906.0625-.003906.015625 0 .03125.003906.050782.003906 6.789062 0 13.226562-2.949219 17.664062-8.085937l10.234375-11.851563c2.710937-3.132813 2.363281-7.871094-.769531-10.578125zm-112.515625-160.164062v97.789062h-282.714844v-97.789062zm82.335937 326.351562v26.515625c0 1.894531-1.539062 3.433594-3.429687 3.433594h-440.523438c-1.890625 0-3.433593-1.542969-3.433593-3.433594v-26.515625c0-1.890625 1.542968-3.429688 3.433593-3.429688h440.523438c1.890625 0 3.429687 1.539063 3.429687 3.429688zm-184.675781-65.769531v47.339843h-31.515625v-85.625c17.9375 3.507813 31.515625 19.335938 31.515625 38.285157zm-46.515625 47.339843h-31.519531v-47.339843c0-18.949219 13.582031-34.777344 31.519531-38.285157zm86.039062-132.242187c-4.144531 0-7.5 3.355469-7.5 7.5 0 4.140625 3.355469 7.5 7.5 7.5h107.472657v117.242187h-131.996094v-47.339843c0-29.785157-24.230469-54.015625-54.015625-54.015625s-54.015625 24.230468-54.015625 54.015625v47.339843h-131.996094v-117.242187h236.550781c4.144532 0 7.5-3.359375 7.5-7.5 0-4.144531-3.355468-7.5-7.5-7.5h-257.15625c29.386719-23.3125 47.679688-51.917969 54.054688-62.890625h306.058594c6.375 10.964844 24.667968 39.574219 54.058594 62.890625zm0 0" fill="#444444"/></g><g transform="matrix(0.1171875 0 0 0.1171875 35 84.00000137329101)" id="L1_5"><path d="M487.068,339.443c-1.86-1.86-4.441-2.93-7.071-2.93c-2.64,0-5.211,1.07-7.081,2.93c-1.86,1.86-2.92,4.441-2.92,7.071    s1.06,5.211,2.92,7.071c1.87,1.86,4.441,2.93,7.081,2.93c2.63,0,5.211-1.07,7.071-2.93c1.86-1.86,2.93-4.441,2.93-7.071    S488.928,341.304,487.068,339.443z" fill="#444444"/><path d="M510.197,236.76l-40.507-57.997c-0.004-0.006-0.009-0.012-0.013-0.019c-0.002-0.002-0.003-0.005-0.005-0.007    c-0.003-0.004-0.006-0.008-0.01-0.012c-0.062-0.087-0.124-0.174-0.188-0.26l-35.268-46.735    c-17.368-23.015-44.951-36.756-73.784-36.756h-4.116V69.637c0-23.53-19.143-42.674-42.674-42.674    c-23.531,0-42.674,19.143-42.674,42.674v35.339c0,23.53,19.143,42.674,42.674,42.674c0.635,0,1.266-0.02,1.895-0.048    c-4.752,11.106-2.971,24.407,5.512,33.924l47.771,53.59c1.355,1.521,2.102,3.481,2.102,5.518v62.254v20.003    c0,11.914,6.98,22.227,17.066,27.067v82.663c-11.425,7.15-19.775,18.777-22.554,32.412h-76.737    c-5.524,0-10.002,4.478-10.002,10.002s4.478,10.002,10.002,10.002h193.465c5.524,0,10.002-4.478,10.002-10.002    s-4.478-10.002-10.002-10.002h-5.232c0.329-1.616,0.503-3.289,0.503-5.001V445.03h2.569c5.524,0,10.002-4.478,10.002-10.002    V382.02c0-5.524-4.478-10.002-10.002-10.002c-5.524,0-10.002,4.478-10.002,10.002v43.007h-62.01v-72.98    c13.146-3.185,22.942-15.045,22.942-29.157v-20.003v-5.235l39.069-23.881v31.736c0,5.524,4.478,10.002,10.002,10.002    c5.524,0,10.002-4.478,10.002-10.002v-41.507c0-0.789-0.101-1.553-0.274-2.289l17.492-10.692c2.354-1.438,4.009-3.786,4.574-6.485    C512.352,241.834,511.776,239.021,510.197,236.76z M313.634,127.646c-12.501,0-22.671-10.17-22.671-22.671V69.637    c0-12.501,10.17-22.671,22.671-22.671s22.671,10.17,22.671,22.671v35.339C336.305,117.476,326.135,127.646,313.634,127.646z     M414.427,445.03h42.994v15.002c0,2.757-2.243,5.001-5.001,5.001h-66.285C390.263,453.391,401.387,445.03,414.427,445.03z     M410.92,322.891c0,5.515-4.487,10.002-10.002,10.002s-10.002-4.487-10.002-10.002v-10.002h20.003V322.891z M410.921,292.885    h-20.003v-52.252c0-6.952-2.547-13.639-7.173-18.829l-47.772-53.589c-4.218-4.732-4.021-11.959,0.45-16.452    c2.405-2.418,5.602-3.676,9.016-3.528c3.409,0.144,6.493,1.661,8.687,4.273l45.562,54.253    c7.243,8.625,11.233,19.578,11.233,30.841V292.885z M420.343,201.196c-1.609-2.538-3.39-4.979-5.338-7.299l-45.562-54.254    c-5.133-6.111-12.39-10.066-20.24-11.127c2.707-4.078,4.729-8.645,5.909-13.539h5.311c22.594,0,44.207,10.768,57.817,28.802    l29.037,38.478L420.343,201.196z M430.923,274.209v-36.606c0-6.025-0.807-11.986-2.362-17.732l30.476-21.43l28.674,41.056    L430.923,274.209z" fill="#444444"/><path d="M240.108,467.964c-1.86-1.86-4.441-2.93-7.071-2.93s-5.211,1.07-7.071,2.93s-2.93,4.441-2.93,7.071s1.07,5.211,2.93,7.071    s4.441,2.93,7.071,2.93s5.211-1.07,7.071-2.93c1.86-1.86,2.93-4.441,2.93-7.071S241.968,469.824,240.108,467.964z" fill="#444444"/><path d="M198.365,26.963c-23.531,0-42.674,19.143-42.674,42.674v25.337h-4.116c-28.833,0-56.416,13.74-73.784,36.756    l-35.268,46.735c-0.064,0.086-0.127,0.172-0.188,0.26c-0.003,0.004-0.006,0.008-0.009,0.012c-0.002,0.002-0.003,0.005-0.005,0.007    c-0.004,0.006-0.009,0.012-0.013,0.019L1.802,236.76c-1.58,2.261-2.155,5.075-1.59,7.775c0.565,2.7,2.219,5.047,4.574,6.485    l17.492,10.692c-0.173,0.736-0.274,1.5-0.274,2.289v171.028c0,5.524,4.478,10.002,10.002,10.002h2.569v15.002    c0,1.712,0.174,3.385,0.503,5.001H17.571c-5.524,0-10.002,4.478-10.002,10.002c0,5.524,4.478,10.002,10.002,10.002h177.46    c5.524,0,10.002-4.478,10.002-10.002c0-5.524-4.478-10.002-10.002-10.002h-48.458c-2.779-13.635-11.129-25.262-22.554-32.412    v-82.663c10.085-4.841,17.066-15.153,17.066-27.067v-20.003v-62.254c0-2.037,0.747-3.998,2.102-5.518l47.771-53.59    c8.484-9.518,10.264-22.82,5.512-33.924c0.629,0.028,1.259,0.048,1.895,0.048c23.53,0,42.674-19.143,42.674-42.674V69.637    C241.039,46.107,221.896,26.963,198.365,26.963z M93.758,143.78c13.609-18.035,35.224-28.802,57.817-28.802h5.311    c1.18,4.894,3.201,9.461,5.909,13.539c-7.85,1.062-15.106,5.016-20.239,11.128l-45.562,54.253    c-1.948,2.32-3.729,4.761-5.338,7.299l-26.933-18.939L93.758,143.78z M101.079,312.889h20.003v10.002    c0,5.515-4.487,10.002-10.002,10.002s-10.002-4.487-10.002-10.002V312.889z M24.288,239.497l28.674-41.056l30.476,21.429    c-1.555,5.746-2.362,11.707-2.362,17.732v36.606L24.288,239.497z M42.006,273.772l39.069,23.881v5.235v20.003    c0,14.111,9.795,25.972,22.942,29.157v72.98H42.006V273.772z M125.863,465.034H59.578c-2.757,0-5.001-2.243-5.001-5.001V445.03    h42.994C110.611,445.03,121.734,453.391,125.863,465.034z M176.026,168.214l-47.771,53.59c-4.626,5.189-7.173,11.877-7.173,18.829    v52.253h-20.003v-55.283c0-11.263,3.99-22.216,11.233-30.841l45.562-54.253c2.193-2.612,5.279-4.13,8.687-4.274    c3.406-0.138,6.609,1.109,9.015,3.528C180.046,156.257,180.243,163.484,176.026,168.214z M221.035,104.975    c0,12.501-10.17,22.671-22.671,22.671s-22.671-10.17-22.671-22.671V69.637h0.001c0-12.501,10.17-22.671,22.671-22.671    s22.67,10.17,22.67,22.671V104.975z" fill="#444444"/></g><g transform="matrix(0.1171875 0 0 0.1171875 204 79)" id="L1_6"><path d="M258.77,336.93c-1.86-1.86-4.44-2.93-7.07-2.93s-5.21,1.07-7.07,2.93s-2.93,4.44-2.93,7.07s1.07,5.21,2.93,7.07    c1.86,1.86,4.44,2.93,7.07,2.93s5.21-1.07,7.07-2.93s2.93-4.44,2.93-7.07S260.64,338.79,258.77,336.93z" fill="#444444"/><path d="M410.224,375.862l-0.148-0.447c-1.736-5.243-7.394-8.084-12.637-6.349c-5.243,1.736-8.085,7.394-6.35,12.637l0.148,0.447    c1.391,4.2,5.297,6.859,9.492,6.859c1.042,0,2.102-0.165,3.145-0.51C409.117,386.763,411.959,381.105,410.224,375.862z" fill="#444444"/><path d="M470.123,179.5h-16c-8.806,0-16.702,3.951-22.025,10.167h-18.975V186c0-5.523-4.477-10-10-10h-45.411    c-4.459,0-8.473-2.476-10.475-6.461l-22.094-43.997C315.993,107.32,297.642,96,277.251,96h-8.835    c7.551-9.29,12.087-21.123,12.087-34v-8c0-29.776-24.224-54-54-54s-54,24.224-54,54v8c0,12.877,4.537,24.71,12.088,34h-20.646    c-23.759,0-44.938,15.948-51.504,38.781L89.346,215.1c-3.494,12.149-1.136,24.91,6.468,35.008    c7.605,10.1,19.217,15.892,31.858,15.892h27.801v13.243L104.756,308.7c-25.631,14.887-44.892,38.578-54.232,66.708l-27.708,83.441    c-1.013,3.049-0.499,6.398,1.381,9.003c0.325,0.451,0.695,0.857,1.083,1.241c-7.712,8.801-12.403,20.313-12.403,32.907    c0,5.523,4.477,10,10,10h77.987c13.785,0,25-11.215,25-25v-15.041c3.713-0.209,7.029-2.444,8.564-5.865L166.779,394h127.038    l32.35,72.094c1.535,3.421,4.851,5.656,8.564,5.865V487c0,1.712,0.174,3.384,0.503,5h-83.533c-5.523,0-10,4.477-10,10    s4.477,10,10,10h186.018c5.523,0,10-4.477,10-10c0-12.594-4.69-24.107-12.403-32.907c0.388-0.385,0.758-0.791,1.083-1.241    c1.88-2.605,2.394-5.954,1.381-9.003l-16.805-50.606c-1.74-5.241-7.397-8.08-12.642-6.339c-5.242,1.74-8.08,7.4-6.339,12.642    L414.433,452h-16.714h-52.988h-2.967l-26.026-58h10.385c3.182,0,6.174-1.515,8.059-4.079c1.885-2.564,2.436-5.873,1.484-8.909    l-23.309-74.438l33.439,19.421c12.741,7.4,23.919,17.706,32.328,29.802c1.943,2.795,5.056,4.293,8.22,4.293    c1.969,0,3.959-0.581,5.699-1.79c4.535-3.152,5.656-9.384,2.504-13.919c-10.067-14.483-23.452-26.822-38.706-35.682    l-50.718-29.456v-13.116h98c5.523,0,10-4.477,10-10v-4.46h18.974c5.323,6.216,13.219,10.167,22.026,10.167h16    c15.991,0,29-13.009,29-29V208.5C499.123,192.509,486.113,179.5,470.123,179.5z M354.732,472h42.987    c13.038,0,24.159,8.359,28.287,20h-66.274c-2.757,0-5-2.243-5-5V472z M192.504,54c0-18.748,15.252-34,34-34    c18.748,0,34,15.252,34,34v8c0,18.748-15.252,34-34,34c-18.748,0-34-15.252-34-34V54z M261.123,266.127h16    c1.067,0,2.12-0.062,3.157-0.175c0.594,0.11,1.205,0.175,1.831,0.175h3.012V275h0H175.474v-9h34.649c5.523,0,10-4.477,10-10v-0.04    h18.975C244.421,262.176,252.317,266.127,261.123,266.127z M252.123,237.127v-24.333c0-4.962,4.038-9,9-9h16c4.962,0,9,4.038,9,9    v24.333c0,4.962-4.038,9-9,9h-16C256.161,246.127,252.123,242.089,252.123,237.127z M232.123,235.96h-12v-22h12V235.96z     M245.409,112.577l-19.8,37.928L198.32,108.04c8.21,5.045,17.862,7.96,28.185,7.96C233.153,116,239.522,114.785,245.409,112.577z     M127.672,246c-6.301,0-12.089-2.887-15.88-7.921s-4.966-11.395-3.225-17.451l23.096-80.32    c4.115-14.312,17.39-24.308,32.283-24.308h15.716l50.097,77.96h-9.846c-0.942-4.545-4.967-7.96-9.791-7.96h-52    c-5.523,0-10,4.477-10,10c0,5.523,4.477,10,10,10h42v39.96V246H127.672z M105.865,487c0,2.757-2.243,5-5,5H34.591    c4.127-11.641,15.249-20,28.287-20h42.987V487z M118.832,452h-2.967H62.877H46.163l23.341-70.29    c7.802-23.495,23.889-43.282,45.297-55.716l33.439-19.421l-23.309,74.438c-0.951,3.037-0.4,6.345,1.484,8.909    c1.884,2.564,4.876,4.079,8.059,4.079h10.384L118.832,452z M312.513,374H148.084l6.263-20h58.1c5.523,0,10-4.477,10-10    s-4.477-10-10-10h-51.838l12.212-39h114.954L312.513,374z M393.123,199.667v42v4.46h0h-88.437c0.928-2.835,1.437-5.859,1.437-9    v-24.333c0-15.991-13.009-29-29-29h-16c-4.414,0-8.598,0.995-12.346,2.767l-10.72-16.683L266.183,116h11.069    c12.781,0,24.283,7.095,30.019,18.517l22.094,43.997C334.78,189.3,345.643,196,357.712,196h35.411V199.667z M425.123,231.667h-12    v-22h12V231.667z M479.123,232.833c0,4.962-4.038,9-9,9h-16c-4.962,0-9-4.038-9-9V208.5c0-4.962,4.038-9,9-9h16    c4.962,0,9,4.038,9,9V232.833z" fill="#444444"/></g><g transform="matrix(0.1171875 0 0 0.1171875 210 268)" id="L1_7"><path d="M512,230.04v-54.255c0-14.817-12.055-26.873-26.872-26.873H335.194l-4.222-4.222c-0.425-0.425-0.883-0.795-1.359-1.127    c-3.138-3.175-7.136-5.544-11.716-6.686l-40.871-10.194c-2.304-0.575-4.634-0.814-6.935-0.737    c-0.087-0.002-0.171-0.013-0.258-0.013h-23.334c-22.939,0-45.117,8.162-62.598,22.979H26.873C12.055,148.913,0,160.967,0,175.785    v54.255c0,14.817,12.055,26.872,26.873,26.872h68.19l-27.364,27.364c-3.905,3.905-3.905,10.237,0,14.143l46.314,46.314    c1.875,1.875,4.419,2.929,7.071,2.929c2.652,0,5.196-1.054,7.071-2.929l78.114-78.114c12.697,8.601,27.728,13.271,43.209,13.271    h21.353c0.031,0,0.063,0.004,0.094,0.004c2.029,0,4.076-0.248,6.101-0.753l40.872-10.194c4.1-1.022,7.74-3.023,10.71-5.708    l28.745,28.744c1.953,1.952,4.512,2.929,7.071,2.929s5.119-0.977,7.071-2.929c3.905-3.905,3.905-10.237,0-14.143l-34.661-34.661    v-64.344l150.918,150.918l-32.172,32.172l-31.391-31.392c-3.905-3.903-10.237-3.904-14.142,0c-3.905,3.905-3.906,10.237,0,14.143    l38.462,38.463c1.875,1.875,4.419,2.929,7.071,2.929c2.652,0,5.196-1.054,7.071-2.929l46.315-46.314    c1.875-1.876,2.929-4.419,2.929-7.071c0-2.652-1.054-5.195-2.929-7.071l-65.771-65.771h41.933    C499.945,256.913,512,244.858,512,230.04z M26.873,236.913c-3.79,0-6.873-3.083-6.873-6.872v-54.255    c0-3.79,3.083-6.873,6.873-6.873h156.19l-68.043,68.043c-0.282-0.024-0.565-0.043-0.853-0.043H26.873z M121.083,323.52    l-32.172-32.172l109.872-109.871l32.172,32.172L121.083,323.52z M220.753,252.136L246,226.889v28.015    c0,1.667,0.172,3.305,0.487,4.902C237.383,259.327,228.565,256.686,220.753,252.136z M246,150.922v47.682l-0.852,0.852    l-40.437-41.164c12.381-8.024,26.885-12.358,41.788-12.358h0.006C246.178,147.558,246,149.225,246,150.922z M316.833,244.71    c0,2.291-1.552,4.278-3.775,4.833l-40.872,10.194c-2.052,0.514-3.558-0.35-4.272-0.907c-0.715-0.559-1.915-1.812-1.915-3.925    V150.922c0-2.114,1.2-3.367,1.915-3.925c0.562-0.439,1.611-1.064,3.03-1.064c0.387,0,0.802,0.047,1.242,0.156l40.872,10.194    c2.223,0.555,3.775,2.542,3.775,4.833V244.71z M423.195,236.913l-68.001-68h129.934c3.789,0,6.872,3.083,6.872,6.873v54.255    c0,3.789-3.083,6.872-6.872,6.872H423.195z" fill="#444444"/><path d="M396.243,302.592c-1.86-1.861-4.44-2.93-7.07-2.93s-5.21,1.069-7.07,2.93c-1.86,1.86-2.93,4.44-2.93,7.07    s1.07,5.21,2.93,7.069c1.86,1.87,4.44,2.931,7.07,2.931s5.21-1.061,7.07-2.931c1.86-1.859,2.93-4.439,2.93-7.069    S398.103,304.452,396.243,302.592z" fill="#444444"/></g></defs><g fi:class="KUsePattern"><pattern id="pattern_L1_0" width="350" height="350" patternUnits="userSpaceOnUse"><use xlink:href="#L1_0" x="-350" y="-350"/><use xlink:href="#L1_0" x="0" y="-350"/><use xlink:href="#L1_0" x="350" y="-350"/><use xlink:href="#L1_0" x="-350" y="0"/><use xlink:href="#L1_0" x="0" y="0"/><use xlink:href="#L1_0" x="350" y="0"/><use xlink:href="#L1_0" x="-350" y="350"/><use xlink:href="#L1_0" x="0" y="350"/><use xlink:href="#L1_0" x="350" y="350"/></pattern><rect x="0" y="0" width="100%" height="100%" fill="url(#pattern_L1_0)"/></g><g fi:class="KUsePattern"><pattern id="pattern_L1_1" width="350" height="350" patternUnits="userSpaceOnUse"><use xlink:href="#L1_1" x="-350" y="-350"/><use xlink:href="#L1_1" x="0" y="-350"/><use xlink:href="#L1_1" x="350" y="-350"/><use xlink:href="#L1_1" x="-350" y="0"/><use xlink:href="#L1_1" x="0" y="0"/><use xlink:href="#L1_1" x="350" y="0"/><use xlink:href="#L1_1" x="-350" y="350"/><use xlink:href="#L1_1" x="0" y="350"/><use xlink:href="#L1_1" x="350" y="350"/></pattern><rect x="0" y="0" width="100%" height="100%" fill="url(#pattern_L1_1)"/></g><g fi:class="KUsePattern"><pattern id="pattern_L1_2" width="350" height="350" patternUnits="userSpaceOnUse"><use xlink:href="#L1_2" x="-350" y="-350"/><use xlink:href="#L1_2" x="0" y="-350"/><use xlink:href="#L1_2" x="350" y="-350"/><use xlink:href="#L1_2" x="-350" y="0"/><use xlink:href="#L1_2" x="0" y="0"/><use xlink:href="#L1_2" x="350" y="0"/><use xlink:href="#L1_2" x="-350" y="350"/><use xlink:href="#L1_2" x="0" y="350"/><use xlink:href="#L1_2" x="350" y="350"/></pattern><rect x="0" y="0" width="100%" height="100%" fill="url(#pattern_L1_2)"/></g><g fi:class="KUsePattern"><pattern id="pattern_L1_3" width="350" height="350" patternUnits="userSpaceOnUse"><use xlink:href="#L1_3" x="-350" y="-350"/><use xlink:href="#L1_3" x="0" y="-350"/><use xlink:href="#L1_3" x="350" y="-350"/><use xlink:href="#L1_3" x="-350" y="0"/><use xlink:href="#L1_3" x="0" y="0"/><use xlink:href="#L1_3" x="350" y="0"/><use xlink:href="#L1_3" x="-350" y="350"/><use xlink:href="#L1_3" x="0" y="350"/><use xlink:href="#L1_3" x="350" y="350"/></pattern><rect x="0" y="0" width="100%" height="100%" fill="url(#pattern_L1_3)"/></g><g fi:class="KUsePattern"><pattern id="pattern_L1_4" width="350" height="350" patternUnits="userSpaceOnUse"><use xlink:href="#L1_4" x="-350" y="-350"/><use xlink:href="#L1_4" x="0" y="-350"/><use xlink:href="#L1_4" x="350" y="-350"/><use xlink:href="#L1_4" x="-350" y="0"/><use xlink:href="#L1_4" x="0" y="0"/><use xlink:href="#L1_4" x="350" y="0"/><use xlink:href="#L1_4" x="-350" y="350"/><use xlink:href="#L1_4" x="0" y="350"/><use xlink:href="#L1_4" x="350" y="350"/></pattern><rect x="0" y="0" width="100%" height="100%" fill="url(#pattern_L1_4)"/></g><g fi:class="KUsePattern"><pattern id="pattern_L1_5" width="350" height="350" patternUnits="userSpaceOnUse"><use xlink:href="#L1_5" x="-350" y="-350"/><use xlink:href="#L1_5" x="0" y="-350"/><use xlink:href="#L1_5" x="350" y="-350"/><use xlink:href="#L1_5" x="-350" y="0"/><use xlink:href="#L1_5" x="0" y="0"/><use xlink:href="#L1_5" x="350" y="0"/><use xlink:href="#L1_5" x="-350" y="350"/><use xlink:href="#L1_5" x="0" y="350"/><use xlink:href="#L1_5" x="350" y="350"/></pattern><rect x="0" y="0" width="100%" height="100%" fill="url(#pattern_L1_5)"/></g><g fi:class="KUsePattern"><pattern id="pattern_L1_6" width="350" height="350" patternUnits="userSpaceOnUse"><use xlink:href="#L1_6" x="-350" y="-350"/><use xlink:href="#L1_6" x="0" y="-350"/><use xlink:href="#L1_6" x="350" y="-350"/><use xlink:href="#L1_6" x="-350" y="0"/><use xlink:href="#L1_6" x="0" y="0"/><use xlink:href="#L1_6" x="350" y="0"/><use xlink:href="#L1_6" x="-350" y="350"/><use xlink:href="#L1_6" x="0" y="350"/><use xlink:href="#L1_6" x="350" y="350"/></pattern><rect x="0" y="0" width="100%" height="100%" fill="url(#pattern_L1_6)"/></g><g fi:class="KUsePattern"><pattern id="pattern_L1_7" width="350" height="350" patternUnits="userSpaceOnUse"><use xlink:href="#L1_7" x="-350" y="-350"/><use xlink:href="#L1_7" x="0" y="-350"/><use xlink:href="#L1_7" x="350" y="-350"/><use xlink:href="#L1_7" x="-350" y="0"/><use xlink:href="#L1_7" x="0" y="0"/><use xlink:href="#L1_7" x="350" y="0"/><use xlink:href="#L1_7" x="-350" y="350"/><use xlink:href="#L1_7" x="0" y="350"/><use xlink:href="#L1_7" x="350" y="350"/></pattern><rect x="0" y="0" width="100%" height="100%" fill="url(#pattern_L1_7)"/></g></svg>